<svg xmlns="http://www.w3.org/2000/svg" width="42.042" height="38.269" viewBox="0 0 42.042 38.269">
  <g id="icon-bids" transform="translate(0.678 0.678)">
    <path id="Path_753" d="M40.086,18.544,22.345.8a2.712,2.712,0,0,0-3.8,0L.8,18.544a2.712,2.712,0,0,0,0,3.8,2.779,2.779,0,0,0,1.958.806h0a2.7,2.7,0,0,0,1.958-.806l15.667-15.9,15.9,15.9a2.688,2.688,0,1,0,3.8-3.8Z" transform="translate(0 0)" fill="#e45424" stroke="#fff" stroke-width="1"/>
    <path id="Path_754" d="M31.583,24.39,21.1,13.791a2.227,2.227,0,0,0-3.226,0h0L7.391,24.39a2.227,2.227,0,0,0,0,3.226h0A2.274,2.274,0,0,0,9,28.306H9a2.274,2.274,0,0,0,1.613-.691l8.87-8.87,8.87,8.87a2.227,2.227,0,0,0,3.226,0h0A2.226,2.226,0,0,0,31.583,24.39Z" transform="translate(1.015 1.987)" fill="#e45424" stroke="#fff" stroke-width="1"/>
    <path id="Path_755" d="M24.534,30.169l-4.723-4.608a1.732,1.732,0,0,0-1.267-.461,1.85,1.85,0,0,0-1.267.576l-4.608,4.608a1.808,1.808,0,0,0,0,2.534,1.732,1.732,0,0,0,1.267.461h0A1.85,1.85,0,0,0,15.2,32.7l3.341-3.341L21.884,32.7a1.835,1.835,0,0,0,2.65-2.534Z" transform="translate(1.843 3.812)" fill="#e45424" stroke="#fff" stroke-width="1"/>
  </g>
</svg>
