<svg xmlns="http://www.w3.org/2000/svg" width="33.999" height="34" viewBox="0 0 33.999 34">
  <g id="_x31_1_1_" transform="translate(-0.002)">
    <path id="Path_478" data-name="Path 478" d="M47.145,22.845A9.858,9.858,0,0,0,37.3,13v2.305a7.552,7.552,0,0,1,7.54,7.54Z" transform="translate(-19.387 -6.757)" fill="#fff"/>
    <path id="Path_479" data-name="Path 479" d="M53.336,16.088A16.13,16.13,0,0,0,37.2,0V2.305A13.824,13.824,0,0,1,51.031,16.088Z" transform="translate(-19.335)" fill="#fff"/>
    <path id="Path_480" data-name="Path 480" d="M22.956,37.223h0c-3.121,0-8.212-1.393-14.887-8.068-8.6-8.6-8.356-14.647-7.876-16.808A8.658,8.658,0,0,1,4.227,7.016l.1-.048a4.32,4.32,0,0,1,2.4-.768,4.211,4.211,0,0,1,3.554,1.921c1.2,1.825,2.257,3.506,3.073,4.706l.1.192c.912,1.441,1.056,3.89-.192,5.09a13.367,13.367,0,0,1-1.249,1.056,5.057,5.057,0,0,0-.432.384h0a1.535,1.535,0,0,0,.24.624A18.657,18.657,0,0,0,14.12,23.1l.1.1a18.657,18.657,0,0,0,2.929,2.305,1.181,1.181,0,0,0,.624.24c.048,0,.192-.144.384-.432.1-.144.672-.864,1.056-1.3a3.415,3.415,0,0,1,2.449-.912,5.108,5.108,0,0,1,2.593.72l.384.24c1.153.768,2.785,1.777,4.514,2.929a4.329,4.329,0,0,1,1.825,2.737,4.19,4.19,0,0,1-.672,3.218L30.255,33a8.658,8.658,0,0,1-5.331,4.034,13.029,13.029,0,0,1-1.969.192ZM6.724,8.457a1.869,1.869,0,0,0-1.1.336l-.144.1A6.4,6.4,0,0,0,2.45,12.827C2.114,14.268,1.682,19.55,9.7,27.522c6.387,6.435,11.045,7.4,13.254,7.4a6.654,6.654,0,0,0,1.441-.144,6.53,6.53,0,0,0,3.938-3.025l.1-.144a1.815,1.815,0,0,0,.288-1.489,1.874,1.874,0,0,0-.816-1.249c-1.729-1.153-3.314-2.161-4.466-2.929l-.384-.24a2.436,2.436,0,0,0-1.345-.336,1.31,1.31,0,0,0-.816.192,12.2,12.2,0,0,0-.96,1.1,2.794,2.794,0,0,1-2.209,1.3,3.369,3.369,0,0,1-1.777-.576,19.636,19.636,0,0,1-3.266-2.545l-.288-.288a19.636,19.636,0,0,1-2.545-3.266c-1.393-2.353.1-3.506.72-3.986.384-.288.864-.72,1.1-.912a2.341,2.341,0,0,0-.144-2.161l-.1-.192c-.768-1.2-1.825-2.833-3.025-4.658a2.014,2.014,0,0,0-1.681-.912Z" transform="translate(0 -3.223)" fill="#fff"/>
  </g>
</svg>
