<svg xmlns="http://www.w3.org/2000/svg" width="40.347" height="40.347" viewBox="0 0 40.347 40.347">
  <g id="noun_question_mark_178771" data-name="noun_question mark_178771" transform="translate(-12.9 -12.9)">
    <path id="Path_1711" data-name="Path 1711" d="M33.073,53.247A20.173,20.173,0,1,0,12.9,33.073,20.2,20.2,0,0,0,33.073,53.247Zm0-38.172a18,18,0,1,1-18,18A18.02,18.02,0,0,1,33.073,15.075Z" transform="translate(0 0)" fill="#fff"/>
    <circle id="Ellipse_29" data-name="Ellipse 29" cx="1.523" cy="1.523" r="1.523" transform="translate(31.333 40.414)" fill="#fff"/>
    <path id="Path_1712" data-name="Path 1712" d="M39.63,35.3a1.091,1.091,0,0,0,1.088-1.088,4.079,4.079,0,1,1,8.156,0c0,2.936-1.577,3.915-3.045,4.839-1.142.707-2.447,1.577-2.447,3.208v2.012a1.088,1.088,0,0,0,2.175,0V42.309c0-.435.435-.761,1.468-1.414,1.631-1.033,4.078-2.556,4.078-6.688a6.253,6.253,0,1,0-12.506,0A.986.986,0,0,0,39.63,35.3Z" transform="translate(-11.722 -6.844)" fill="#fff"/>
  </g>
</svg>
