<?xml version="1.0" encoding="utf-8"?>
<!-- Generator: Adobe Illustrator 24.0.0, SVG Export Plug-In . SVG Version: 6.00 Build 0)  -->
<svg version="1.1" id="Layer_1" xmlns="http://www.w3.org/2000/svg" xmlns:xlink="http://www.w3.org/1999/xlink" x="0px" y="0px"
	 viewBox="0 0 27 23" style="enable-background:new 0 0 27 23;" xml:space="preserve">
<style type="text/css">
	.st0{enable-background:new    ;}
	.st1{fill:none;stroke:#000000;}
</style>
<g id="Group_1414" transform="translate(-1358 -482.855)">
	<g class="st0">
		<path d="M1366.9,497.7h-5.2l-1.1,3.1h-2.4l5.1-13.5h2.1l5.1,13.5h-2.4L1366.9,497.7z M1362.4,495.8h3.9l-2-5.6L1362.4,495.8z"/>
	</g>
	<g id="Group_637" transform="translate(1374 487)">
		<g id="Rectangle_374" transform="translate(5 1)">
			<rect y="0" width="2" height="10"/>
			<rect x="0.5" y="0.5" class="st1" width="1" height="9"/>
		</g>
		<g id="Rectangle_375" transform="translate(11 5) rotate(90)">
			<rect x="-4" y="4" transform="matrix(2.535182e-06 1 -1 2.535182e-06 6 4)" width="10" height="2"/>
			<rect x="-3.5" y="4.5" transform="matrix(2.535182e-06 1 -1 2.535182e-06 6 4)" class="st1" width="9" height="1"/>
		</g>
	</g>
</g>
</svg>
