<svg xmlns="http://www.w3.org/2000/svg" width="205.191" height="76.357" viewBox="0 0 205.191 76.357">
  <g id="Group_1412" data-name="Group 1412" transform="translate(-697 -76)">
    <g id="Group_711" data-name="Group 711" transform="translate(2)">
      <g id="Group_650" data-name="Group 650" transform="translate(357.762 -2846.153)">
        <g id="Group_649" data-name="Group 649" transform="translate(429.784 2951.855)">
          <path id="Path_1609" data-name="Path 1609" d="M416.945,2960.833v-13.26h2.917v10.608h6.612v2.652Z" transform="translate(-416.358 -2947.345)" fill="#fff"/>
          <path id="Path_1610" data-name="Path 1610" d="M428.051,2960.833v-13.26h10v2.595h-7.1v2.689H437.2v2.6h-6.252v2.785h7.2v2.595Z" transform="translate(-414.219 -2947.345)" fill="#fff"/>
          <path id="Path_1611" data-name="Path 1611" d="M450.021,2960.849l-1.213-2.974H443.2l-1.212,2.974h-2.974l5.683-13.356h2.691l5.683,13.356ZM446,2951l-1.761,4.3h3.524Z" transform="translate(-412.108 -2947.361)" fill="#fff"/>
          <path id="Path_1612" data-name="Path 1612" d="M461.841,2960.833,459,2956.59h-2.292v4.243H453.79v-13.26h6.062c3.126,0,5,1.648,5,4.375v.038a4.118,4.118,0,0,1-2.841,4.111l3.239,4.736Zm.056-8.734c0-1.25-.871-1.894-2.291-1.894h-2.9v3.808h2.955c1.42,0,2.235-.759,2.235-1.876Z" transform="translate(-409.262 -2947.345)" fill="#fff"/>
          <path id="Path_1613" data-name="Path 1613" d="M475.849,2960.833l-6.422-8.429v8.429h-2.879v-13.26h2.69l6.214,8.165v-8.165h2.879v13.26Z" transform="translate(-406.804 -2947.345)" fill="#fff"/>
          <path id="Path_1614" data-name="Path 1614" d="M480.482,2960.833v-13.26H483.4v13.26Z" transform="translate(-404.121 -2947.345)" fill="#fff"/>
          <path id="Path_1615" data-name="Path 1615" d="M496.282,2960.833l-6.422-8.429v8.429h-2.879v-13.26h2.689l6.214,8.165v-8.165h2.88v13.26Z" transform="translate(-402.869 -2947.345)" fill="#fff"/>
          <path id="Path_1616" data-name="Path 1616" d="M507.283,2961.1a6.637,6.637,0,0,1-6.972-6.819v-.039a6.806,6.806,0,0,1,6.953-6.857,7.281,7.281,0,0,1,5.209,1.819l-1.838,2.217a4.881,4.881,0,0,0-3.467-1.346,3.982,3.982,0,0,0-3.807,4.13v.037a3.973,3.973,0,0,0,4.016,4.207,4.652,4.652,0,0,0,2.747-.8v-1.9h-2.936v-2.519h5.759v5.758A8.606,8.606,0,0,1,507.283,2961.1Z" transform="translate(-400.301 -2947.382)" fill="#fff"/>
          <path id="Path_1617" data-name="Path 1617" d="M423.253,2982.163a6.693,6.693,0,0,1-6.8-6.819v-.038a6.739,6.739,0,0,1,6.914-6.858,6.843,6.843,0,0,1,5.23,2.047l-1.857,2.139a4.894,4.894,0,0,0-3.391-1.5,3.928,3.928,0,0,0-3.846,4.13v.037a3.94,3.94,0,0,0,3.846,4.168,4.782,4.782,0,0,0,3.485-1.554l1.857,1.876A6.777,6.777,0,0,1,423.253,2982.163Z" transform="translate(-416.453 -2943.324)" fill="#fff"/>
          <path id="Path_1618" data-name="Path 1618" d="M429.942,2981.9v-13.261h10v2.6h-7.1v2.689h6.252v2.6H432.84v2.785h7.2v2.6Z" transform="translate(-413.855 -2943.288)" fill="#fff"/>
          <path id="Path_1619" data-name="Path 1619" d="M451.159,2981.9l-6.422-8.431v8.431h-2.879v-13.261h2.691l6.214,8.165v-8.165h2.879V2981.9Z" transform="translate(-411.56 -2943.288)" fill="#fff"/>
          <path id="Path_1620" data-name="Path 1620" d="M461.839,2971.33v10.57h-2.917v-10.57h-4.035v-2.691h10.988v2.691Z" transform="translate(-409.05 -2943.288)" fill="#fff"/>
          <path id="Path_1621" data-name="Path 1621" d="M475.3,2981.9l-2.841-4.243h-2.293v4.243h-2.916v-13.261h6.062c3.125,0,5,1.648,5,4.376v.038a4.118,4.118,0,0,1-2.842,4.111l3.239,4.736Zm.057-8.733c0-1.25-.872-1.894-2.292-1.894h-2.9v3.808h2.955c1.422,0,2.236-.759,2.236-1.876Z" transform="translate(-406.67 -2943.288)" fill="#fff"/>
          <path id="Path_1622" data-name="Path 1622" d="M480.006,2981.9v-13.261h10v2.6h-7.1v2.689h6.252v2.6H482.9v2.785h7.2v2.6Z" transform="translate(-404.212 -2943.288)" fill="#fff"/>
        </g>
      </g>
      <g id="Group_710" data-name="Group 710" transform="translate(-111.95 -579.602)">
        <path id="Path_1734" data-name="Path 1734" d="M853.417,701.139a4.458,4.458,0,0,1-1.8-1.878H839.941V709.81h23.671a5.275,5.275,0,0,0,5.275-5.275V684.682c-21.252-2.363-36.292,1.423-43.08,5.585V718.76a5.275,5.275,0,0,0,5.275,5.275h14.71l7.995,7.924V724.04h15.13V713.491l-32.557-.009v-18.4h15.352a4.452,4.452,0,1,1,1.705,6.061Z" fill="#fff"/>
        <g id="Group_709" data-name="Group 709" transform="translate(0 -1)">
          <path id="Path_1735" data-name="Path 1735" d="M893.84,656.6H836.248l-29.3,24.892h7.073v9.131h-.591L811.746,701.4h5.9l-1.686-10.772h-.591v-9.131h9.761l.522,5.4c.543-.286,1.111-.569,1.713-.846,8.24-3.784,22.4-6.459,41.473-4.391v-4.851l.447-.361v0l1.206-.98Z" fill="#e45424"/>
        </g>
      </g>
    </g>
    <g id="Group_713" data-name="Group 713" transform="translate(790.164 84.48)">
      <path id="Path_821" data-name="Path 821" d="M34.452,4.312l.045-.095a1.555,1.555,0,0,1,.508-.546,2.407,2.407,0,0,1,.716-.309,3.213,3.213,0,0,1,.81-.1,2.628,2.628,0,0,1,1.077.229,1.825,1.825,0,0,1,.826.73l1.018-.885a3.166,3.166,0,0,0-1.3-.951A4.821,4.821,0,0,0,35.2,2.3a3.738,3.738,0,0,0-.752.322Z" transform="translate(-26.67 -2.1)" fill="#fff"/>
      <path id="Path_822" data-name="Path 822" d="M123.85,10.688a3.756,3.756,0,0,1,.281-1.475A3.472,3.472,0,0,1,124.9,8.07a3.4,3.4,0,0,1,1.166-.744,4.22,4.22,0,0,1,2.949,0,3.4,3.4,0,0,1,1.165.744,3.485,3.485,0,0,1,.767,1.143,4.024,4.024,0,0,1,0,2.949,3.467,3.467,0,0,1-.767,1.142,3.39,3.39,0,0,1-1.165.746,4.242,4.242,0,0,1-2.949,0A3.393,3.393,0,0,1,124.9,13.3a3.454,3.454,0,0,1-.766-1.142,3.747,3.747,0,0,1-.281-1.474m1.238,0a2.908,2.908,0,0,0,.171,1.01,2.329,2.329,0,0,0,.494.811,2.363,2.363,0,0,0,.774.547,2.668,2.668,0,0,0,2.02,0,2.379,2.379,0,0,0,.774-.547,2.351,2.351,0,0,0,.494-.811,3.1,3.1,0,0,0,0-2.019,2.323,2.323,0,0,0-1.268-1.358,2.668,2.668,0,0,0-2.02,0,2.323,2.323,0,0,0-1.268,1.358,2.905,2.905,0,0,0-.171,1.01" transform="translate(-50.567 -3.424)" fill="#fff"/>
      <path id="Path_823" data-name="Path 823" d="M140.922,12.567q0,.471.029.884c.019.275.03.527.03.752h-1.092c0-.187-.006-.374-.015-.561s-.015-.377-.015-.575h-.029a1.96,1.96,0,0,1-.332.487,2.386,2.386,0,0,1-.508.421,2.742,2.742,0,0,1-1.461.4,3.043,3.043,0,0,1-1.172-.206,2.188,2.188,0,0,1-.818-.575,2.314,2.314,0,0,1-.479-.892,4.04,4.04,0,0,1-.155-1.143V7.3h1.15v4.144a2.208,2.208,0,0,0,.384,1.371,1.408,1.408,0,0,0,1.194.5,2.26,2.26,0,0,0,.966-.19,1.721,1.721,0,0,0,.664-.547,2.449,2.449,0,0,0,.383-.84,4.316,4.316,0,0,0,.126-1.077V7.3h1.15Z" transform="translate(-53.522 -3.488)" fill="#fff"/>
      <path id="Path_824" data-name="Path 824" d="M113.343,12.047a6.248,6.248,0,0,1-1.7.733,7.1,7.1,0,0,1-1.811.235,5.029,5.029,0,0,1-2.016-.4,4.689,4.689,0,0,1-1.586-1.115,5.071,5.071,0,0,1-1.042-1.725,6.369,6.369,0,0,1-.371-2.223,6.126,6.126,0,0,1,.391-2.238A5.071,5.071,0,0,1,106.284,3.6a4.917,4.917,0,0,1,3.582-1.5,5.22,5.22,0,0,1,1.785.308,3.788,3.788,0,0,1,1.532,1.057l-.835.969a3.21,3.21,0,0,0-1.161-.881,3.367,3.367,0,0,0-1.4-.308,3.487,3.487,0,0,0-1.5.323,3.684,3.684,0,0,0-1.2.9,4.114,4.114,0,0,0-.8,1.364,5.089,5.089,0,0,0-.285,1.732,5.042,5.042,0,0,0,.285,1.717,4.205,4.205,0,0,0,.8,1.372,3.571,3.571,0,0,0,1.227.9,3.807,3.807,0,0,0,1.578.322,4.984,4.984,0,0,0,1.194-.154,4.466,4.466,0,0,0,1.141-.448V8.085h-2.162V6.94h3.277Z" transform="translate(-45.478 -2.097)" fill="#fff"/>
      <path id="Path_825" data-name="Path 825" d="M118.413,8.829q0-.469-.029-.881t-.029-.748h1.086q0,.278.015.558c.01.185.015.377.015.572h.029a1.984,1.984,0,0,1,.33-.484,2.364,2.364,0,0,1,.506-.418,2.7,2.7,0,0,1,.66-.294,2.75,2.75,0,0,1,.793-.11,1.946,1.946,0,0,1,.234.015,1.063,1.063,0,0,1,.235.059l-.074,1.16a2.135,2.135,0,0,0-.616-.089,1.739,1.739,0,0,0-1.534.683,3.22,3.22,0,0,0-.477,1.871v3.345h-1.144Z" transform="translate(-49.098 -3.414)" fill="#fff"/>
      <path id="Path_826" data-name="Path 826" d="M144.872,7.2h1.144v1h.029a3.367,3.367,0,0,1,1.093-.866,3.051,3.051,0,0,1,1.372-.308,3.884,3.884,0,0,1,1.475.272,3.281,3.281,0,0,1,1.137.755,3.5,3.5,0,0,1,.734,1.144,4.053,4.053,0,0,1,0,2.877,3.541,3.541,0,0,1-.727,1.144,3.293,3.293,0,0,1-1.093.756,3.378,3.378,0,0,1-1.35.271,3.179,3.179,0,0,1-1.621-.4,2.626,2.626,0,0,1-1.02-.991h-.029v3.857h-1.144Zm1.144,3.433a2.9,2.9,0,0,0,.169,1.005,2.32,2.32,0,0,0,1.262,1.35,2.653,2.653,0,0,0,2.011,0,2.319,2.319,0,0,0,1.262-1.35,3.07,3.07,0,0,0,0-2.011,2.321,2.321,0,0,0-1.262-1.35,2.644,2.644,0,0,0-2.011,0,2.321,2.321,0,0,0-1.262,1.35A2.9,2.9,0,0,0,146.016,10.634Z" transform="translate(-56.186 -3.414)" fill="#fff"/>
      <path id="Path_827" data-name="Path 827" d="M42.582,10.688a3.756,3.756,0,0,1,.281-1.475,3.473,3.473,0,0,1,.766-1.143,3.4,3.4,0,0,1,1.165-.744,4.223,4.223,0,0,1,2.95,0,3.4,3.4,0,0,1,1.165.744,3.486,3.486,0,0,1,.767,1.143,4.024,4.024,0,0,1,0,2.949,3.467,3.467,0,0,1-.767,1.142,3.39,3.39,0,0,1-1.165.746,4.244,4.244,0,0,1-2.95,0,3.4,3.4,0,0,1-1.165-.746,3.455,3.455,0,0,1-.766-1.142,3.747,3.747,0,0,1-.281-1.474m1.238,0a2.909,2.909,0,0,0,.171,1.01,2.329,2.329,0,0,0,.494.811,2.363,2.363,0,0,0,.774.547,2.668,2.668,0,0,0,2.02,0,2.386,2.386,0,0,0,.774-.547,2.351,2.351,0,0,0,.494-.811,3.1,3.1,0,0,0,0-2.019,2.323,2.323,0,0,0-1.268-1.358,2.668,2.668,0,0,0-2.02,0,2.323,2.323,0,0,0-1.268,1.358,2.906,2.906,0,0,0-.171,1.01" transform="translate(-28.843 -3.424)" fill="#fff"/>
      <rect id="Rectangle_378" data-name="Rectangle 378" width="1.151" height="10.186" transform="translate(22.039 0.53)" fill="#fff"/>
      <path id="Path_828" data-name="Path 828" d="M63.2,12.567q0,.471.029.884c.02.275.03.527.03.752H62.172c0-.187-.006-.374-.015-.561s-.015-.377-.015-.575h-.029a1.984,1.984,0,0,1-.333.487,2.385,2.385,0,0,1-.508.421,2.69,2.69,0,0,1-.665.295,2.72,2.72,0,0,1-.8.11,3.041,3.041,0,0,1-1.172-.206,2.185,2.185,0,0,1-.819-.575,2.323,2.323,0,0,1-.478-.892,4.014,4.014,0,0,1-.155-1.143V7.3h1.15v4.144a2.2,2.2,0,0,0,.385,1.371,1.407,1.407,0,0,0,1.194.5,2.265,2.265,0,0,0,.966-.19,1.713,1.713,0,0,0,.663-.547,2.448,2.448,0,0,0,.384-.84,4.351,4.351,0,0,0,.125-1.077V7.3H63.2Z" transform="translate(-32.747 -3.488)" fill="#fff"/>
      <path id="Path_829" data-name="Path 829" d="M70.253,7.4H68.218v3.211c0,.226.005.434.015.626a1.273,1.273,0,0,0,.118.5.8.8,0,0,0,.309.34,1.141,1.141,0,0,0,.591.125,2.375,2.375,0,0,0,.517-.058,2.2,2.2,0,0,0,.5-.177l.044,1.046a2.623,2.623,0,0,1-.656.192,4.242,4.242,0,0,1-.685.059,2.486,2.486,0,0,1-.988-.162,1.333,1.333,0,0,1-.575-.456,1.705,1.705,0,0,1-.273-.73,6.474,6.474,0,0,1-.066-.966V4.06l1.15-.928V6.187h2.035Z" transform="translate(-35.389 -2.374)" fill="#fff"/>
      <rect id="Rectangle_379" data-name="Rectangle 379" width="1.15" height="6.901" transform="translate(36.248 3.814)" fill="#fff"/>
      <rect id="Rectangle_380" data-name="Rectangle 380" width="1.271" height="1.229" transform="translate(36.188 1.527)" fill="#fff"/>
      <path id="Path_830" data-name="Path 830" d="M76.045,10.688a3.743,3.743,0,0,1,.28-1.475,3.463,3.463,0,0,1,.767-1.143,3.4,3.4,0,0,1,1.165-.744,4.222,4.222,0,0,1,2.95,0,3.4,3.4,0,0,1,1.164.744,3.486,3.486,0,0,1,.767,1.143,4.014,4.014,0,0,1,0,2.949,3.467,3.467,0,0,1-.767,1.142,3.394,3.394,0,0,1-1.164.746,4.244,4.244,0,0,1-2.95,0,3.39,3.39,0,0,1-1.165-.746,3.445,3.445,0,0,1-.767-1.142,3.734,3.734,0,0,1-.28-1.474m1.238,0a2.926,2.926,0,0,0,.17,1.01,2.339,2.339,0,0,0,.493.811,2.386,2.386,0,0,0,.774.547,2.67,2.67,0,0,0,2.021,0,2.387,2.387,0,0,0,.774-.547,2.34,2.34,0,0,0,.494-.811,3.1,3.1,0,0,0,0-2.019,2.353,2.353,0,0,0-.494-.813,2.383,2.383,0,0,0-.774-.545,2.67,2.67,0,0,0-2.021,0,2.383,2.383,0,0,0-.774.545,2.352,2.352,0,0,0-.493.813,2.923,2.923,0,0,0-.17,1.01" transform="translate(-37.788 -3.424)" fill="#fff"/>
      <path id="Path_831" data-name="Path 831" d="M87.118,8.874q0-.473-.03-.885c-.02-.275-.029-.525-.029-.752H88.15c0,.188.005.374.015.561s.014.378.014.574h.029a2.047,2.047,0,0,1,.332-.486,2.409,2.409,0,0,1,.509-.421,2.709,2.709,0,0,1,.664-.295,2.75,2.75,0,0,1,.8-.111,3.029,3.029,0,0,1,1.172.207,2.209,2.209,0,0,1,.818.574,2.321,2.321,0,0,1,.479.893,4.006,4.006,0,0,1,.155,1.142v4.263H91.986V10A2.208,2.208,0,0,0,91.6,8.624a1.408,1.408,0,0,0-1.2-.5,2.249,2.249,0,0,0-.966.191,1.718,1.718,0,0,0-.663.547,2.462,2.462,0,0,0-.384.84,4.319,4.319,0,0,0-.125,1.076v3.363h-1.15Z" transform="translate(-40.732 -3.424)" fill="#fff"/>
      <path id="Path_832" data-name="Path 832" d="M39.371,10.069a2.509,2.509,0,0,0-.693-.848,3.949,3.949,0,0,0-1-.561c-.379-.147-.769-.286-1.172-.413a9.222,9.222,0,0,1-1.048-.383,2.691,2.691,0,0,1-.678-.413,1.345,1.345,0,0,1-.325-.418V8.857l.089.047a7.575,7.575,0,0,0,1.032.406l1.21.413a3.827,3.827,0,0,1,.855.4,1.44,1.44,0,0,1,.5.523,1.663,1.663,0,0,1,.163.788,1.476,1.476,0,0,1-.206.783,1.9,1.9,0,0,1-.531.567,2.43,2.43,0,0,1-.73.347,2.885,2.885,0,0,1-2.087-.177,2.144,2.144,0,0,1-.3-.173v1.389a4.395,4.395,0,0,0,.59.148,5.226,5.226,0,0,0,.915.081,5.091,5.091,0,0,0,1.372-.185,3.561,3.561,0,0,0,1.172-.56,2.747,2.747,0,0,0,1.128-2.308,2.827,2.827,0,0,0-.258-1.276" transform="translate(-26.67 -3.416)" fill="#fff"/>
      <path id="Path_833" data-name="Path 833" d="M30.366,13.236a3.476,3.476,0,0,1-1.351,1.089,4.352,4.352,0,0,1-1.7.31,3.618,3.618,0,0,1-1.454-.281,3.223,3.223,0,0,1-1.784-1.883,3.932,3.932,0,0,1-.243-1.385,3.822,3.822,0,0,1,.264-1.435,3.321,3.321,0,0,1,.735-1.125A3.284,3.284,0,0,1,25.946,7.8a3.749,3.749,0,0,1,1.41-.259,3.583,3.583,0,0,1,1.323.238,2.874,2.874,0,0,1,1.035.692,3.082,3.082,0,0,1,.668,1.111,4.4,4.4,0,0,1,.234,1.492v.361h-5.55a2.323,2.323,0,0,0,.212.829,2.413,2.413,0,0,0,.477.692,2.221,2.221,0,0,0,.691.469,2.143,2.143,0,0,0,.866.172,2.781,2.781,0,0,0,1.262-.259,2.843,2.843,0,0,0,.925-.765Zm-.984-2.756A1.923,1.923,0,0,0,28.809,9.1a2.077,2.077,0,0,0-1.5-.52,2.242,2.242,0,0,0-1.542.52,2.157,2.157,0,0,0-.7,1.383Z" transform="translate(-23.831 -3.552)" fill="#fff"/>
      <path id="Path_834" data-name="Path 834" d="M101.253,11.278a1.685,1.685,0,0,0-.487-.59,2.513,2.513,0,0,0-.723-.376,6.59,6.59,0,0,0-.87-.229,6.515,6.515,0,0,1-.657-.147,3.5,3.5,0,0,1-.56-.206,1.234,1.234,0,0,1-.382-.274.532.532,0,0,1-.14-.374.719.719,0,0,1,.125-.421,1.019,1.019,0,0,1,.317-.3,1.514,1.514,0,0,1,.434-.177,2.052,2.052,0,0,1,.479-.059,1.608,1.608,0,0,1,.878.229,1.787,1.787,0,0,1,.582.6l.959-.635a2.13,2.13,0,0,0-.981-.958,3.174,3.174,0,0,0-1.364-.3,3.387,3.387,0,0,0-.944.133,2.887,2.887,0,0,0-.826.384,1.929,1.929,0,0,0-.59.634,1.751,1.751,0,0,0-.221.884,1.7,1.7,0,0,0,.2.871,1.617,1.617,0,0,0,.531.552,3,3,0,0,0,.774.347c.295.089.6.168.93.236.186.04.368.084.544.133a1.853,1.853,0,0,1,.473.2,1.106,1.106,0,0,1,.332.3.762.762,0,0,1,.126.456.849.849,0,0,1-.133.48A1.09,1.09,0,0,1,99.7,13a1.6,1.6,0,0,1-.495.193,2.518,2.518,0,0,1-.539.058,2.716,2.716,0,0,1-1.863-.659v1.449a5.323,5.323,0,0,0,1.863.273,4.3,4.3,0,0,0,1.01-.118,2.714,2.714,0,0,0,.886-.376,1.943,1.943,0,0,0,.626-.67,1.985,1.985,0,0,0,.236-1,1.931,1.931,0,0,0-.177-.87" transform="translate(-43.198 -3.424)" fill="#fff"/>
    </g>
  </g>
</svg>
