<svg xmlns="http://www.w3.org/2000/svg" width="41.476" height="37.78" viewBox="0 0 41.476 37.78">
  <path id="discuss-issue" d="M31.733,25.08a3.44,3.44,0,0,1-1.583,2.581c-.253.212-.724.6-.723.745a1.012,1.012,0,0,1-1.02,1.021H28.4a1.015,1.015,0,0,1-1.028-1,3.079,3.079,0,0,1,1.457-2.329c.512-.43.848-.733.848-1.01a1.017,1.017,0,0,0-2.035,0,1.028,1.028,0,1,1-2.057,0,3.074,3.074,0,0,1,6.148,0Zm-3.305,5.3a1.009,1.009,0,0,0-1.006,1.028v.008a1.006,1.006,0,0,0,1.006,1.024,1.03,1.03,0,0,0,0-2.061ZM7.7,37.54a1.028,1.028,0,1,0,0,2.057h.086a1.028,1.028,0,1,0,0-2.057Zm3.574,0a1.028,1.028,0,1,0,0,2.057h.086a1.028,1.028,0,1,0,0-2.057Zm30.2-16.424V32.69a4.943,4.943,0,0,1-4.938,4.964H23.2c-.261,0-.475,0-.655-.005s-.4-.005-.483,0c-.086.057-.3.25-.5.438l-.27.246-3.773,3.439a1.052,1.052,0,0,1-1.753-.759v-10.9H5a2.947,2.947,0,0,0-2.939,2.923V44.611A2.9,2.9,0,0,0,5,47.481h14.9a1.032,1.032,0,0,1,.686.291l3.074,2.834V40.832a1.028,1.028,0,1,1,2.057,0v12.1a1.014,1.014,0,0,1-.606.935.986.986,0,0,1-.407.082,1.039,1.039,0,0,1-.693-.28l-4.508-4.137H5a4.96,4.96,0,0,1-5-4.926V33.036a5.006,5.006,0,0,1,5-4.98H15.768V21.116a4.988,4.988,0,0,1,5.013-4.942H36.538A4.924,4.924,0,0,1,41.476,21.116Zm-2.057,0a2.865,2.865,0,0,0-2.881-2.885H20.78a2.929,2.929,0,0,0-2.956,2.885V38.685l2.067-1.868c.1-.087.2-.167.281-.24a2.6,2.6,0,0,1,2.417-.984c.168,0,.368,0,.612,0H36.538a2.884,2.884,0,0,0,2.881-2.908V21.116Z" transform="translate(0 -16.174)" fill="#fff"/>
</svg>
