<svg xmlns="http://www.w3.org/2000/svg" width="44.023" height="41" viewBox="0 0 44.023 41">
  <g id="noun_Add_User_178752" data-name="noun_Add User_178752" transform="translate(-9.9 -12.7)">
    <path id="Path_1699" data-name="Path 1699" d="M16.165,47.764a20.263,20.263,0,0,0,14.18,5.716,21.167,21.167,0,0,0,6.705-1.1,1.078,1.078,0,0,0-.714-2.034A18.391,18.391,0,0,1,18.2,46.72a16.367,16.367,0,0,1,5.111-5.166c1.264.66,4.287,2.034,6.65,2.034a11.058,11.058,0,0,0,3.243-.6,1.1,1.1,0,0,0-.66-2.088,8.749,8.749,0,0,1-2.583.495c-1.979,0-5.111-1.484-6.155-2.088a1.283,1.283,0,0,0-1.1,0,18.436,18.436,0,0,0-6.046,5.771A18.188,18.188,0,0,1,30.345,14.9,18.249,18.249,0,0,1,48.537,33.09a1.1,1.1,0,0,0,2.2,0,20.418,20.418,0,0,0-40.835,0,20.214,20.214,0,0,0,6.046,14.454A.429.429,0,0,0,16.165,47.764Z" transform="translate(0)" fill="#e45424"/>
    <path id="Path_1700" data-name="Path 1700" d="M40.424,27.8c-5.111,0-8.024,3.188-8.024,8.794,0,5.221,3.957,10.332,8.024,10.332,4.177,0,8.024-4.946,8.024-10.332C48.448,30.988,45.535,27.8,40.424,27.8Zm0,16.928c-3.078,0-5.826-4.562-5.826-8.134,0-3.023.989-6.6,5.826-6.6s5.826,3.572,5.826,6.6C46.25,40.661,43.392,44.728,40.424,44.728Z" transform="translate(-10.134 -6.801)" fill="#e45424"/>
    <path id="Path_1701" data-name="Path 1701" d="M68.586,54.4a1.1,1.1,0,0,0-1.1-1.1H63.2a1.1,1.1,0,0,0-1.1,1.1v5h-5A1.1,1.1,0,0,0,56,60.5v4.287a1.1,1.1,0,0,0,1.1,1.1h5v5a1.1,1.1,0,0,0,1.1,1.1h4.287a1.1,1.1,0,0,0,1.1-1.1v-5h5a1.1,1.1,0,0,0,1.1-1.1V60.5a1.1,1.1,0,0,0-1.1-1.1h-5Zm3.9,7.2v2.088h-5a1.1,1.1,0,0,0-1.1,1.1v5H64.3v-5a1.1,1.1,0,0,0-1.1-1.1h-5V61.6h5a1.1,1.1,0,0,0,1.1-1.1v-5h2.088v5a1.1,1.1,0,0,0,1.1,1.1Z" transform="translate(-20.764 -18.286)" fill="#e45424"/>
  </g>
</svg>
