<svg xmlns="http://www.w3.org/2000/svg" width="43.32" height="41.523" viewBox="0 0 43.32 41.523">
  <g id="Group_688" data-name="Group 688" transform="translate(-208 -209)">
    <path id="Path_1678" data-name="Path 1678" d="M209,234.39l14.372,6.288,6.288-4.491v-.9L215.288,229,209,233.491Z" transform="translate(0 -1.933)" fill="none" stroke="#e45424" stroke-linejoin="round" stroke-width="2"/>
    <path id="Path_1679" data-name="Path 1679" d="M252.66,234.39l-14.372,6.288L232,236.186v-.9L246.372,229l6.288,4.491Z" transform="translate(-2.34 -1.933)" fill="none" stroke="#e45424" stroke-linejoin="round" stroke-width="2"/>
    <line id="Line_260" data-name="Line 260" y2="15.27" transform="translate(229.66 234.253)" fill="none" stroke="#e45424" stroke-linejoin="round" stroke-width="2"/>
    <path id="Path_1680" data-name="Path 1680" d="M244.744,238v8.084l-14.372,6.288L216,246.084V238" transform="translate(-0.712 -2.849)" fill="none" stroke="#e45424" stroke-linejoin="round" stroke-width="2"/>
    <path id="Path_1681" data-name="Path 1681" d="M243.151,227.965V210H218v17.965" transform="translate(-0.916)" fill="none" stroke="#e45424" stroke-linejoin="round" stroke-width="2"/>
    <path id="Path_1682" data-name="Path 1682" d="M215.288,228.186,209,225.491v-.9L217.084,221" transform="translate(0 -1.119)" fill="none" stroke="#e45424" stroke-linejoin="round" stroke-width="2"/>
    <path id="Path_1683" data-name="Path 1683" d="M247.8,228.186l6.288-2.695v-.9L246,221" transform="translate(-3.764 -1.119)" fill="none" stroke="#e45424" stroke-linejoin="round" stroke-width="2"/>
    <line id="Line_261" data-name="Line 261" x2="1.797" transform="translate(219.779 212.695)" fill="none" stroke="#e45424" stroke-linejoin="round" stroke-width="2"/>
    <line id="Line_262" data-name="Line 262" x2="1.797" transform="translate(223.372 212.695)" fill="none" stroke="#e45424" stroke-linejoin="round" stroke-width="2"/>
    <line id="Line_263" data-name="Line 263" x2="25.151" transform="translate(217.084 215.39)" fill="none" stroke="#e45424" stroke-linejoin="round" stroke-width="2"/>
  </g>
</svg>
