<svg xmlns="http://www.w3.org/2000/svg" width="43.469" height="41.5" viewBox="0 0 43.469 41.5">
  <g id="Group_681" data-name="Group 681" transform="translate(-122.95 -210.55)">
    <path id="Path_1667" data-name="Path 1667" d="M139.243,248.235H126.765a1.785,1.785,0,0,1-1.783-1.783V221.5H150.83a.891.891,0,1,0,0-1.783H124.983v-5.348a1.784,1.784,0,0,1,1.783-1.783h35.652a1.784,1.784,0,0,1,1.783,1.783.891.891,0,1,0,1.783,0,3.569,3.569,0,0,0-3.565-3.565H126.765a3.569,3.569,0,0,0-3.565,3.565v32.087a3.569,3.569,0,0,0,3.565,3.565h12.478a.891.891,0,0,0,0-1.783Z" transform="translate(0 0)" fill="#e45424" stroke="#e45424" stroke-width="0.5"/>
    <circle id="Ellipse_26" data-name="Ellipse 26" cx="1.337" cy="1.337" r="1.337" transform="translate(127.211 214.811)" fill="#e45424" stroke="#e45424" stroke-width="0.5"/>
    <circle id="Ellipse_27" data-name="Ellipse 27" cx="1.337" cy="1.337" r="1.337" transform="translate(132.559 214.811)" fill="#e45424" stroke="#e45424" stroke-width="0.5"/>
    <path id="Path_1668" data-name="Path 1668" d="M166.714,220.143l-1.543-.891a3.563,3.563,0,0,0-4.871,1.306l-1.336,2.315h0v0l-12.03,20.838a4.851,4.851,0,0,0-.57,2.106l-.024,5.4a1.458,1.458,0,0,0,.406,1.072,1.268,1.268,0,0,0,.906.372,1.564,1.564,0,0,0,.8-.229l4.665-2.721a4.852,4.852,0,0,0,1.541-1.546l12.033-20.841,1.337-2.316A3.571,3.571,0,0,0,166.714,220.143ZM153.107,247.28a3.124,3.124,0,0,1-.893.9l-4.09,2.385.021-4.736a3.105,3.105,0,0,1,.331-1.22l11.586-20.069,4.632,2.674Zm13.37-23.157-.891,1.544-4.632-2.674.891-1.544a1.779,1.779,0,0,1,2.436-.652l1.543.891A1.785,1.785,0,0,1,166.476,224.123Z" transform="translate(-2.515 -0.867)" fill="#e45424" stroke="#e45424" stroke-width="0.5"/>
  </g>
</svg>
