<svg id="Group_647" data-name="Group 647" xmlns="http://www.w3.org/2000/svg" width="31.733" height="31.733" viewBox="0 0 31.733 31.733">
  <path id="Path_1602" data-name="Path 1602" d="M31.733,15.867A15.867,15.867,0,1,0,13.387,31.54V20.453H9.359V15.867h4.029v-3.5c0-3.977,2.369-6.173,5.993-6.173a24.4,24.4,0,0,1,3.552.31v3.9h-2a2.293,2.293,0,0,0-2.586,2.478v2.976h4.4l-.7,4.586h-3.7V31.54A15.87,15.87,0,0,0,31.733,15.867Z" fill="#3c3c3c"/>
  <path id="Path_1603" data-name="Path 1603" d="M314.684,214.255l.7-4.586h-4.4v-2.977a2.293,2.293,0,0,1,2.586-2.478h2v-3.9a24.4,24.4,0,0,0-3.552-.31c-3.624,0-5.993,2.2-5.993,6.173v3.5H302v4.586h4.029v11.087a16.049,16.049,0,0,0,4.958,0V214.255Z" transform="translate(-292.641 -193.802)" fill="#fff"/>
</svg>
