<svg xmlns="http://www.w3.org/2000/svg" width="273.435" height="40.676" viewBox="0 0 273.435 40.676">
  <g id="Group_648" data-name="Group 648" transform="translate(-1.089 -0.981)">
    <path id="Path_809" data-name="Path 809" d="M8.694,21.845V8.586h11.06a3.208,3.208,0,1,1-.066,3.014H11.274v7.6H28.328a3.8,3.8,0,0,0,3.8-3.8V4.782a3.8,3.8,0,0,0-3.8-3.8H4.891a3.8,3.8,0,0,0-3.8,3.8V25.647a3.8,3.8,0,0,0,3.8,3.8h10.6l5.76,5.708V29.45h10.9v-7.6Z" transform="translate(0 0)" fill="#e45424"/>
    <g id="Group_642" data-name="Group 642" transform="translate(42.169 35.27)">
      <path id="Path_810" data-name="Path 810" d="M26.8,20.339H27.91l2.646,6.078H29.045l-.525-1.286H26.159l-.505,1.286H24.177Zm.516,1.769L26.581,24h1.484Z" transform="translate(-24.177 -20.184)" fill="#888"/>
      <path id="Path_811" data-name="Path 811" d="M36.145,26.056a4.814,4.814,0,0,1-1.237.447,6.219,6.219,0,0,1-1.313.137,3.729,3.729,0,0,1-1.315-.222,3.022,3.022,0,0,1-1.039-.641,2.906,2.906,0,0,1-.681-1.009,3.682,3.682,0,0,1,0-2.644,2.906,2.906,0,0,1,.681-1.009,2.992,2.992,0,0,1,1.039-.639,3.729,3.729,0,0,1,1.315-.224,4.838,4.838,0,0,1,1.342.176,2.643,2.643,0,0,1,1.078.6l-.945,1.032a1.846,1.846,0,0,0-.617-.431,2.229,2.229,0,0,0-.858-.146,2.005,2.005,0,0,0-.778.146,1.755,1.755,0,0,0-.6.409,1.793,1.793,0,0,0-.381.621,2.368,2.368,0,0,0,0,1.568,1.811,1.811,0,0,0,.381.617,1.75,1.75,0,0,0,.6.407,1.973,1.973,0,0,0,.778.148,2.55,2.55,0,0,0,.754-.1,2.965,2.965,0,0,0,.507-.2v-.988H33.766V22.88h2.379Z" transform="translate(-19.395 -20.252)" fill="#888"/>
      <path id="Path_812" data-name="Path 812" d="M34.734,20.339h1.34v2.267h2.6V20.339h1.34v6.078h-1.34V23.791h-2.6v2.626h-1.34Z" transform="translate(-15.95 -20.184)" fill="#888"/>
      <path id="Path_813" data-name="Path 813" d="M38.879,20.339h2.009a5.734,5.734,0,0,1,1.386.164,3.179,3.179,0,0,1,1.148.528,2.579,2.579,0,0,1,.776.948,3.175,3.175,0,0,1,.288,1.416,2.879,2.879,0,0,1-.279,1.3,2.8,2.8,0,0,1-.751.945,3.32,3.32,0,0,1-1.091.578,4.234,4.234,0,0,1-1.3.2H38.879Zm1.34,4.843h.7a3.768,3.768,0,0,0,.861-.094,1.872,1.872,0,0,0,.692-.315,1.488,1.488,0,0,0,.459-.575,2.032,2.032,0,0,0,.167-.872,1.69,1.69,0,0,0-.167-.776,1.571,1.571,0,0,0-.45-.546,2.014,2.014,0,0,0-.665-.322,2.972,2.972,0,0,0-.8-.107h-.79Z" transform="translate(-12.72 -20.184)" fill="#888"/>
      <path id="Path_814" data-name="Path 814" d="M49.052,21.987a1.315,1.315,0,0,0-.484-.368,1.6,1.6,0,0,0-.665-.13,1.685,1.685,0,0,0-.7.146,1.652,1.652,0,0,0-.559.409,1.884,1.884,0,0,0-.37.621,2.369,2.369,0,0,0,0,1.568,1.99,1.99,0,0,0,.365.617,1.635,1.635,0,0,0,.546.407,1.562,1.562,0,0,0,.673.148,1.509,1.509,0,0,0,.729-.173,1.43,1.43,0,0,0,.525-.48l1.116.833a2.312,2.312,0,0,1-.979.8,3.012,3.012,0,0,1-1.219.258,3.726,3.726,0,0,1-1.313-.222,3.006,3.006,0,0,1-1.039-.641,2.91,2.91,0,0,1-.683-1.009,3.707,3.707,0,0,1,0-2.644,2.91,2.91,0,0,1,.683-1.009,2.975,2.975,0,0,1,1.039-.639,3.726,3.726,0,0,1,1.313-.224,3.171,3.171,0,0,1,.537.048,3.017,3.017,0,0,1,.548.149,2.393,2.393,0,0,1,.52.276,2.033,2.033,0,0,1,.447.42Z" transform="translate(-8.144 -20.252)" fill="#888"/>
      <path id="Path_815" data-name="Path 815" d="M48.539,23.446a3.424,3.424,0,0,1,.244-1.322,2.91,2.91,0,0,1,.683-1.009,2.991,2.991,0,0,1,1.039-.639,3.963,3.963,0,0,1,2.628,0,3,3,0,0,1,1.037.639,2.91,2.91,0,0,1,.683,1.009,3.682,3.682,0,0,1,0,2.644,2.91,2.91,0,0,1-.683,1.009,3.031,3.031,0,0,1-1.037.641,3.993,3.993,0,0,1-2.628,0,3.022,3.022,0,0,1-1.039-.641,2.91,2.91,0,0,1-.683-1.009A3.418,3.418,0,0,1,48.539,23.446Zm1.391,0a2.231,2.231,0,0,0,.132.786,1.815,1.815,0,0,0,.383.617,1.726,1.726,0,0,0,.6.407,2.121,2.121,0,0,0,1.555,0,1.726,1.726,0,0,0,.6-.407,1.815,1.815,0,0,0,.383-.617,2.368,2.368,0,0,0,0-1.568,1.8,1.8,0,0,0-.383-.621,1.731,1.731,0,0,0-.6-.409,2.145,2.145,0,0,0-1.555,0,1.731,1.731,0,0,0-.6.409,1.8,1.8,0,0,0-.383.621A2.236,2.236,0,0,0,49.93,23.446Z" transform="translate(-5.192 -20.252)" fill="#888"/>
      <path id="Path_816" data-name="Path 816" d="M53.219,20.339h2.027l1.4,3.966h.018l1.407-3.966h2.018v6.078h-1.34V21.755h-.016l-1.6,4.662H56.112l-1.537-4.662h-.016v4.662h-1.34Z" transform="translate(-1.545 -20.184)" fill="#888"/>
      <path id="Path_817" data-name="Path 817" d="M58.257,20.339h2.258a4.459,4.459,0,0,1,.891.085,2.046,2.046,0,0,1,.735.3,1.508,1.508,0,0,1,.5.566,1.95,1.95,0,0,1,.185.9,2.047,2.047,0,0,1-.173.891,1.467,1.467,0,0,1-.472.576,1.935,1.935,0,0,1-.713.3,4.15,4.15,0,0,1-.893.091H59.6v2.368h-1.34Zm1.34,2.576h.891a1.687,1.687,0,0,0,.347-.036.871.871,0,0,0,.3-.116.6.6,0,0,0,.214-.222.7.7,0,0,0,.082-.356.6.6,0,0,0-.107-.374.713.713,0,0,0-.276-.219,1.167,1.167,0,0,0-.374-.1,3.826,3.826,0,0,0-.4-.021H59.6Z" transform="translate(2.381 -20.184)" fill="#888"/>
      <path id="Path_818" data-name="Path 818" d="M63.7,20.339H64.8l2.646,6.078H65.938l-.525-1.286H63.052l-.507,1.286H61.07Zm.516,1.769L63.474,24h1.484Z" transform="translate(4.573 -20.184)" fill="#888"/>
      <path id="Path_819" data-name="Path 819" d="M65.48,20.339H67.3l2.584,4.224H69.9V20.339H71.24v6.078H69.489l-2.653-4.325H66.82v4.325H65.48Z" transform="translate(8.01 -20.184)" fill="#888"/>
      <path id="Path_820" data-name="Path 820" d="M71.736,23.825l-2.285-3.486h1.665L72.4,22.615l1.365-2.276h1.589l-2.285,3.486v2.592H71.736Z" transform="translate(11.104 -20.184)" fill="#888"/>
    </g>
    <g id="Group_643" data-name="Group 643" transform="translate(41.553 2.967)">
      <path id="Path_821" data-name="Path 821" d="M34.452,7.459l.109-.23A3.776,3.776,0,0,1,35.8,5.9a5.845,5.845,0,0,1,1.738-.751A7.8,7.8,0,0,1,39.5,4.9a6.383,6.383,0,0,1,2.616.555A4.432,4.432,0,0,1,44.122,7.23L46.594,5.08a7.689,7.689,0,0,0-3.169-2.31,11.707,11.707,0,0,0-7.146-.2,9.077,9.077,0,0,0-1.827.783Z" transform="translate(-15.554 -2.088)" fill="#636466"/>
      <path id="Path_822" data-name="Path 822" d="M123.85,15.871a9.121,9.121,0,0,1,.681-3.582,8.432,8.432,0,0,1,1.861-2.776,8.259,8.259,0,0,1,2.831-1.808,10.249,10.249,0,0,1,7.162,0,8.252,8.252,0,0,1,2.829,1.808,8.465,8.465,0,0,1,1.863,2.776,9.153,9.153,0,0,1,.68,3.582,9.131,9.131,0,0,1-.68,3.58,8.42,8.42,0,0,1-1.863,2.774,8.233,8.233,0,0,1-2.829,1.811,10.3,10.3,0,0,1-7.162,0,8.241,8.241,0,0,1-2.831-1.811,8.388,8.388,0,0,1-1.861-2.774,9.1,9.1,0,0,1-.681-3.58m3.007,0a7.064,7.064,0,0,0,.415,2.452,5.656,5.656,0,0,0,1.2,1.97,5.739,5.739,0,0,0,1.881,1.327,6.479,6.479,0,0,0,4.906,0,5.776,5.776,0,0,0,1.881-1.327,5.71,5.71,0,0,0,1.2-1.97,7.518,7.518,0,0,0,0-4.9,5.642,5.642,0,0,0-3.08-3.3,6.479,6.479,0,0,0-4.906,0,5.642,5.642,0,0,0-3.08,3.3,7.056,7.056,0,0,0-.415,2.452" transform="translate(54.112 1.771)" fill="#636466"/>
      <path id="Path_823" data-name="Path 823" d="M149.517,20.088q0,1.145.071,2.148c.046.667.073,1.279.073,1.827H147.01c0-.454-.014-.909-.036-1.363s-.037-.916-.037-1.4h-.069a4.759,4.759,0,0,1-.806,1.181,5.793,5.793,0,0,1-1.235,1.023,6.659,6.659,0,0,1-3.548.982,7.39,7.39,0,0,1-2.847-.5,5.315,5.315,0,0,1-1.987-1.4,5.62,5.62,0,0,1-1.164-2.165,9.812,9.812,0,0,1-.377-2.776V7.3H137.7V17.366a5.362,5.362,0,0,0,.932,3.329,3.419,3.419,0,0,0,2.9,1.217,5.489,5.489,0,0,0,2.347-.463,4.178,4.178,0,0,0,1.612-1.327,5.944,5.944,0,0,0,.931-2.041,10.479,10.479,0,0,0,.306-2.616V7.3h2.792Z" transform="translate(62.726 1.959)" fill="#636466"/>
      <path id="Path_824" data-name="Path 824" d="M125.528,26.26a15.173,15.173,0,0,1-4.14,1.781,17.25,17.25,0,0,1-4.4.571,12.212,12.212,0,0,1-4.9-.963,11.387,11.387,0,0,1-3.85-2.708,12.314,12.314,0,0,1-2.53-4.188,15.466,15.466,0,0,1-.9-5.4,14.878,14.878,0,0,1,.95-5.436,12.315,12.315,0,0,1,2.624-4.169,11.94,11.94,0,0,1,8.7-3.653,12.675,12.675,0,0,1,4.334.749,9.2,9.2,0,0,1,3.72,2.566l-2.028,2.352a7.8,7.8,0,0,0-2.82-2.139,8.176,8.176,0,0,0-3.4-.749,8.467,8.467,0,0,0-3.64.785,8.946,8.946,0,0,0-2.916,2.174,9.991,9.991,0,0,0-1.934,3.313,12.358,12.358,0,0,0-.692,4.206,12.244,12.244,0,0,0,.692,4.169,10.213,10.213,0,0,0,1.934,3.333,8.673,8.673,0,0,0,2.98,2.192,9.244,9.244,0,0,0,3.833.783,12.1,12.1,0,0,0,2.9-.374,10.845,10.845,0,0,0,2.77-1.087V16.637h-5.251V13.858h7.959Z" transform="translate(39.276 -2.097)" fill="#636466"/>
      <path id="Path_825" data-name="Path 825" d="M118.5,11.408q0-1.14-.071-2.139t-.071-1.817h2.637q0,.675.036,1.354c.023.45.036.915.036,1.39h.071a4.816,4.816,0,0,1,.8-1.176A5.741,5.741,0,0,1,123.165,8a6.547,6.547,0,0,1,1.6-.713,6.678,6.678,0,0,1,1.925-.267,4.725,4.725,0,0,1,.569.036,2.581,2.581,0,0,1,.571.142l-.18,2.817a5.184,5.184,0,0,0-1.5-.215,4.224,4.224,0,0,0-3.724,1.658,7.819,7.819,0,0,0-1.158,4.544V24.13H118.5Z" transform="translate(49.829 1.743)" fill="#636466"/>
      <path id="Path_826" data-name="Path 826" d="M144.872,7.453h2.779V9.876h.071a8.177,8.177,0,0,1,2.655-2.1,7.409,7.409,0,0,1,3.333-.749,9.432,9.432,0,0,1,3.582.66,7.968,7.968,0,0,1,2.761,1.834,8.506,8.506,0,0,1,1.783,2.779,9.338,9.338,0,0,1,.641,3.493,9.331,9.331,0,0,1-.641,3.493,8.6,8.6,0,0,1-1.765,2.779,8,8,0,0,1-2.655,1.836,8.2,8.2,0,0,1-3.279.658,7.72,7.72,0,0,1-3.938-.979,6.378,6.378,0,0,1-2.477-2.406h-.071v9.366h-2.779Zm2.779,8.338a7.045,7.045,0,0,0,.411,2.441,5.633,5.633,0,0,0,3.064,3.279,6.443,6.443,0,0,0,4.882,0,5.632,5.632,0,0,0,3.064-3.279,7.455,7.455,0,0,0,0-4.882,5.636,5.636,0,0,0-3.064-3.277,6.421,6.421,0,0,0-4.882,0,5.636,5.636,0,0,0-3.064,3.277A7.052,7.052,0,0,0,147.651,15.791Z" transform="translate(70.494 1.743)" fill="#636466"/>
      <path id="Path_827" data-name="Path 827" d="M42.582,15.871a9.121,9.121,0,0,1,.681-3.582,8.433,8.433,0,0,1,1.861-2.776,8.268,8.268,0,0,1,2.829-1.808,10.254,10.254,0,0,1,7.163,0,8.251,8.251,0,0,1,2.829,1.808,8.465,8.465,0,0,1,1.863,2.776,9.153,9.153,0,0,1,.68,3.582,9.131,9.131,0,0,1-.68,3.58,8.42,8.42,0,0,1-1.863,2.774,8.233,8.233,0,0,1-2.829,1.811,10.307,10.307,0,0,1-7.163,0,8.25,8.25,0,0,1-2.829-1.811,8.389,8.389,0,0,1-1.861-2.774,9.1,9.1,0,0,1-.681-3.58m3.007,0A7.064,7.064,0,0,0,46,18.323a5.656,5.656,0,0,0,1.2,1.97,5.739,5.739,0,0,0,1.881,1.327,6.479,6.479,0,0,0,4.905,0,5.8,5.8,0,0,0,1.881-1.327,5.71,5.71,0,0,0,1.2-1.97,7.518,7.518,0,0,0,0-4.9,5.642,5.642,0,0,0-3.08-3.3,6.479,6.479,0,0,0-4.905,0,5.642,5.642,0,0,0-3.08,3.3,7.057,7.057,0,0,0-.415,2.452" transform="translate(-9.219 1.771)" fill="#636466"/>
      <rect id="Rectangle_378" data-name="Rectangle 378" width="2.795" height="24.735" transform="translate(53.521 1.286)" fill="#636466"/>
      <path id="Path_828" data-name="Path 828" d="M71.8,20.088q0,1.145.069,2.148c.048.667.073,1.279.073,1.827H69.293c0-.454-.014-.909-.037-1.363s-.036-.916-.036-1.4h-.069a4.817,4.817,0,0,1-.808,1.181,5.793,5.793,0,0,1-1.235,1.023,6.532,6.532,0,0,1-1.614.715,6.606,6.606,0,0,1-1.932.267,7.384,7.384,0,0,1-2.847-.5,5.307,5.307,0,0,1-1.989-1.4,5.641,5.641,0,0,1-1.162-2.165,9.748,9.748,0,0,1-.377-2.776V7.3h2.792V17.366a5.351,5.351,0,0,0,.934,3.329,3.417,3.417,0,0,0,2.9,1.217,5.5,5.5,0,0,0,2.347-.463,4.16,4.16,0,0,0,1.61-1.327,5.946,5.946,0,0,0,.932-2.041,10.565,10.565,0,0,0,.3-2.616V7.3H71.8Z" transform="translate(2.163 1.959)" fill="#636466"/>
      <path id="Path_829" data-name="Path 829" d="M74.8,13.5H69.86v7.8c0,.548.012,1.053.037,1.521a3.093,3.093,0,0,0,.286,1.215,1.932,1.932,0,0,0,.751.826,2.77,2.77,0,0,0,1.434.3,5.767,5.767,0,0,0,1.254-.141,5.344,5.344,0,0,0,1.217-.431l.107,2.541a6.368,6.368,0,0,1-1.594.466,10.3,10.3,0,0,1-1.664.142,6.036,6.036,0,0,1-2.4-.393,3.238,3.238,0,0,1-1.4-1.108,4.141,4.141,0,0,1-.664-1.774,15.722,15.722,0,0,1-.16-2.345V5.386L69.86,3.132v7.42H74.8Z" transform="translate(9.863 -1.29)" fill="#636466"/>
      <rect id="Rectangle_379" data-name="Rectangle 379" width="2.792" height="16.76" transform="translate(88.024 9.262)" fill="#636466"/>
      <rect id="Rectangle_380" data-name="Rectangle 380" width="3.085" height="2.984" transform="translate(87.878 3.709)" fill="#636466"/>
      <path id="Path_830" data-name="Path 830" d="M76.045,15.871a9.089,9.089,0,0,1,.68-3.582,8.41,8.41,0,0,1,1.863-2.776,8.251,8.251,0,0,1,2.829-1.808,10.254,10.254,0,0,1,7.163,0,8.26,8.26,0,0,1,2.827,1.808,8.465,8.465,0,0,1,1.863,2.776,9.153,9.153,0,0,1,.681,3.582,9.131,9.131,0,0,1-.681,3.58,8.42,8.42,0,0,1-1.863,2.774,8.242,8.242,0,0,1-2.827,1.811,10.307,10.307,0,0,1-7.163,0,8.233,8.233,0,0,1-2.829-1.811,8.366,8.366,0,0,1-1.863-2.774,9.068,9.068,0,0,1-.68-3.58m3.007,0a7.106,7.106,0,0,0,.413,2.452,5.679,5.679,0,0,0,1.2,1.97,5.8,5.8,0,0,0,1.881,1.327,6.484,6.484,0,0,0,4.907,0,5.8,5.8,0,0,0,1.881-1.327,5.683,5.683,0,0,0,1.2-1.97,7.519,7.519,0,0,0,0-4.9,5.715,5.715,0,0,0-1.2-1.973,5.786,5.786,0,0,0-1.881-1.324,6.484,6.484,0,0,0-4.907,0,5.786,5.786,0,0,0-1.881,1.324,5.711,5.711,0,0,0-1.2,1.973,7.1,7.1,0,0,0-.413,2.452" transform="translate(16.859 1.771)" fill="#636466"/>
      <path id="Path_831" data-name="Path 831" d="M87.2,11.466q0-1.148-.073-2.149c-.048-.669-.071-1.276-.071-1.826h2.649c0,.455.012.907.037,1.361s.034.918.034,1.395h.071a4.97,4.97,0,0,1,.806-1.18,5.85,5.85,0,0,1,1.237-1.021,6.578,6.578,0,0,1,1.612-.715,6.677,6.677,0,0,1,1.934-.27,7.356,7.356,0,0,1,2.847.5,5.363,5.363,0,0,1,1.987,1.395,5.635,5.635,0,0,1,1.164,2.169,9.728,9.728,0,0,1,.375,2.774V24.251h-2.79V14.188a5.361,5.361,0,0,0-.932-3.331,3.42,3.42,0,0,0-2.9-1.217,5.462,5.462,0,0,0-2.347.463,4.173,4.173,0,0,0-1.61,1.327,5.979,5.979,0,0,0-.932,2.041,10.488,10.488,0,0,0-.3,2.614v8.167H87.2Z" transform="translate(25.442 1.771)" fill="#636466"/>
      <path id="Path_832" data-name="Path 832" d="M46.4,14.4a6.092,6.092,0,0,0-1.683-2.059,9.59,9.59,0,0,0-2.436-1.361c-.92-.358-1.866-.694-2.847-1a22.4,22.4,0,0,1-2.544-.931,6.535,6.535,0,0,1-1.646-1,3.265,3.265,0,0,1-.79-1.014v4.429l.215.114a18.4,18.4,0,0,0,2.507.986q1.684.571,2.938,1a9.293,9.293,0,0,1,2.076.968,3.5,3.5,0,0,1,1.217,1.27,4.039,4.039,0,0,1,.395,1.915,3.585,3.585,0,0,1-.5,1.9,4.605,4.605,0,0,1-1.29,1.377,5.9,5.9,0,0,1-1.772.842,7.007,7.007,0,0,1-5.067-.429,5.206,5.206,0,0,1-.719-.42V24.36a10.672,10.672,0,0,0,1.432.359,12.691,12.691,0,0,0,2.222.2,12.362,12.362,0,0,0,3.331-.448,8.647,8.647,0,0,0,2.847-1.359,6.672,6.672,0,0,0,2.74-5.6,6.865,6.865,0,0,0-.626-3.1" transform="translate(-15.554 1.75)" fill="#636466"/>
      <path id="Path_833" data-name="Path 833" d="M39.7,21.375a8.442,8.442,0,0,1-3.281,2.644,10.569,10.569,0,0,1-4.137.753,8.785,8.785,0,0,1-3.53-.681,7.826,7.826,0,0,1-4.333-4.573,9.548,9.548,0,0,1-.589-3.363,9.281,9.281,0,0,1,.641-3.486,8.064,8.064,0,0,1,1.785-2.731,7.976,7.976,0,0,1,2.71-1.769,9.105,9.105,0,0,1,3.423-.63,8.7,8.7,0,0,1,3.212.578A6.979,6.979,0,0,1,38.113,9.8a7.484,7.484,0,0,1,1.623,2.7,10.692,10.692,0,0,1,.569,3.623V17H26.827a5.642,5.642,0,0,0,.516,2.014A5.86,5.86,0,0,0,28.5,20.691a5.4,5.4,0,0,0,1.678,1.139,5.2,5.2,0,0,0,2.1.418,6.752,6.752,0,0,0,3.066-.628A6.9,6.9,0,0,0,37.6,19.763Zm-2.39-6.694a4.67,4.67,0,0,0-1.391-3.359,5.045,5.045,0,0,0-3.637-1.263,5.444,5.444,0,0,0-3.745,1.263,5.239,5.239,0,0,0-1.71,3.359Z" transform="translate(-23.831 2.144)" fill="#e45424"/>
      <path id="Path_834" data-name="Path 834" d="M108.352,17.3a4.093,4.093,0,0,0-1.181-1.432,6.1,6.1,0,0,0-1.756-.913A16,16,0,0,0,103.3,14.4a15.821,15.821,0,0,1-1.6-.358,8.493,8.493,0,0,1-1.359-.5,3,3,0,0,1-.929-.665,1.291,1.291,0,0,1-.34-.909,1.747,1.747,0,0,1,.3-1.023,2.473,2.473,0,0,1,.77-.735,3.676,3.676,0,0,1,1.053-.429,4.983,4.983,0,0,1,1.164-.144,3.9,3.9,0,0,1,2.132.557,4.341,4.341,0,0,1,1.415,1.45l2.329-1.543a5.172,5.172,0,0,0-2.382-2.326,7.708,7.708,0,0,0-3.313-.717,8.225,8.225,0,0,0-2.292.322,7.011,7.011,0,0,0-2.007.932,4.683,4.683,0,0,0-1.432,1.539A4.251,4.251,0,0,0,96.283,12a4.124,4.124,0,0,0,.484,2.116,3.926,3.926,0,0,0,1.29,1.342,7.289,7.289,0,0,0,1.879.842c.715.215,1.466.407,2.258.573.452.1.893.2,1.322.322a4.5,4.5,0,0,1,1.148.484,2.685,2.685,0,0,1,.806.737,1.851,1.851,0,0,1,.306,1.107,2.061,2.061,0,0,1-.324,1.165,2.647,2.647,0,0,1-.859.8,3.9,3.9,0,0,1-1.2.468,6.114,6.114,0,0,1-1.308.141,6.6,6.6,0,0,1-4.525-1.6v3.518a12.927,12.927,0,0,0,4.525.662,10.431,10.431,0,0,0,2.452-.286,6.591,6.591,0,0,0,2.151-.913,4.718,4.718,0,0,0,1.521-1.628,4.821,4.821,0,0,0,.573-2.434,4.69,4.69,0,0,0-.429-2.114" transform="translate(32.63 1.771)" fill="#636466"/>
    </g>
  </g>
</svg>
