<svg xmlns="http://www.w3.org/2000/svg" width="33.484" height="40.181" viewBox="0 0 33.484 40.181">
  <g id="noun_documents_178761" transform="translate(-19 -12.8)">
    <path id="Path_1687" data-name="Path 1687" d="M20.134,52.981H46a1.083,1.083,0,0,0,1.08-1.08V47.634H51.4a1.083,1.083,0,0,0,1.08-1.08V13.88A1.083,1.083,0,0,0,51.4,12.8H25.913a1.083,1.083,0,0,0-1.08,1.08v2.862H20.08A1.083,1.083,0,0,0,19,17.823V51.9A1.131,1.131,0,0,0,20.134,52.981Zm18.9-32.3,4.591,5.239H39.036ZM26.993,14.96H50.27V45.474h-3.24V26.734c0-.054,0-.054-.054-.108,0-.054,0-.054-.054-.108,0-.054-.054-.054-.054-.108l-.054-.054a.053.053,0,0,0-.054-.054l-8.047-9.181h0l-.108-.108-.054-.054a.167.167,0,0,0-.108-.054.053.053,0,0,1-.054-.054c-.054,0-.108-.054-.162-.054H26.993ZM21.214,18.9H36.93V27a1.083,1.083,0,0,0,1.08,1.08h6.913v18.47h0V50.82H21.214Z" fill="#e45424"/>
    <path id="Path_1688" data-name="Path 1688" d="M27.98,36.06h8.425a1.08,1.08,0,1,0,0-2.16H27.98a1.08,1.08,0,1,0,0,2.16Z" transform="translate(-3.634 -9.705)" fill="#e45424"/>
    <path id="Path_1689" data-name="Path 1689" d="M44.4,45.9H27.98a1.08,1.08,0,1,0,0,2.16H44.4a1.08,1.08,0,0,0,0-2.16Z" transform="translate(-3.634 -15.224)" fill="#e45424"/>
    <path id="Path_1690" data-name="Path 1690" d="M44.4,53.9H27.98a1.08,1.08,0,1,0,0,2.16H44.4a1.08,1.08,0,0,0,0-2.16Z" transform="translate(-3.634 -18.903)" fill="#e45424"/>
    <path id="Path_1691" data-name="Path 1691" d="M44.4,61.9H27.98a1.08,1.08,0,1,0,0,2.16H44.4a1.08,1.08,0,0,0,0-2.16Z" transform="translate(-3.634 -22.583)" fill="#e45424"/>
    <path id="Path_1692" data-name="Path 1692" d="M32.841,69.7H27.98a1.08,1.08,0,1,0,0,2.16h4.861a1.083,1.083,0,0,0,1.08-1.08A1.05,1.05,0,0,0,32.841,69.7Z" transform="translate(-3.634 -26.17)" fill="#e45424"/>
    <path id="Path_1693" data-name="Path 1693" d="M46.41,69.7H43.98a1.08,1.08,0,0,0,0,2.16h2.43a1.083,1.083,0,0,0,1.08-1.08A1.05,1.05,0,0,0,46.41,69.7Z" transform="translate(-10.993 -26.17)" fill="#e45424"/>
  </g>
</svg>
