<svg xmlns="http://www.w3.org/2000/svg" width="42.635" height="38.371" viewBox="0 0 42.635 38.371">
  <g id="homepage_website_webpage" data-name="homepage, website, webpage" transform="translate(-8 -12)">
    <path id="Path_1702" data-name="Path 1702" d="M45.306,12H13.329A5.335,5.335,0,0,0,8,17.329V45.042a5.335,5.335,0,0,0,5.329,5.329H45.306a5.335,5.335,0,0,0,5.329-5.329V17.329A5.335,5.335,0,0,0,45.306,12ZM13.329,14.132H45.306a3.2,3.2,0,0,1,3.2,3.2V18.4H10.132V17.329A3.2,3.2,0,0,1,13.329,14.132ZM45.306,48.24H13.329a3.2,3.2,0,0,1-3.2-3.2V20.527H48.5V45.042A3.2,3.2,0,0,1,45.306,48.24Z" transform="translate(0 0)" fill="#e45424"/>
    <path id="Path_1703" data-name="Path 1703" d="M21.066,46.659h8.527a1.065,1.065,0,0,0,1.066-1.066V40.263a1.069,1.069,0,0,0-.427-.854l-4.263-3.2a1.068,1.068,0,0,0-1.278,0l-4.263,3.2a1.069,1.069,0,0,0-.427.854v5.329a1.065,1.065,0,0,0,1.066,1.066ZM22.132,40.8l3.2-2.4,3.2,2.4v3.731h-6.4Z" transform="translate(-5.605 -11.21)" fill="#e45424"/>
    <path id="Path_1704" data-name="Path 1704" d="M61.856,40H49.066a1.066,1.066,0,0,0,0,2.132h12.79a1.066,1.066,0,0,0,0-2.132Z" transform="translate(-18.683 -13.078)" fill="#e45424"/>
    <path id="Path_1705" data-name="Path 1705" d="M61.856,52H49.066a1.066,1.066,0,0,0,0,2.132h12.79a1.066,1.066,0,0,0,0-2.132Z" transform="translate(-18.683 -18.683)" fill="#e45424"/>
    <path id="Path_1706" data-name="Path 1706" d="M48.779,64H21.066a1.066,1.066,0,1,0,0,2.132H48.779a1.066,1.066,0,0,0,0-2.132Z" transform="translate(-5.605 -24.287)" fill="#e45424"/>
  </g>
</svg>
