<svg id="Group_689" data-name="Group 689" xmlns="http://www.w3.org/2000/svg" width="26.5" height="26.5" viewBox="0 0 26.5 26.5">
  <g id="LinkedIn_1_">
    <path id="Path_230" data-name="Path 230" d="M24.2,26.5H2.3A2.311,2.311,0,0,1,0,24.2V2.3A2.311,2.311,0,0,1,2.3,0H24.2a2.311,2.311,0,0,1,2.3,2.3V24.2A2.311,2.311,0,0,1,24.2,26.5Z" fill="#3c3c3c"/>
    <path id="Path_231" data-name="Path 231" d="M3.746,9.537H7.663V22.211H3.746ZM5.7,3.2A2.3,2.3,0,1,1,3.4,5.5,2.311,2.311,0,0,1,5.7,3.2M10.2,22.211h3.917V15.989c0-1.613.346-3.226,2.3-3.226,2.074,0,2.074,1.843,2.074,3.341v6.107h3.917V15.3c0-3.457-.691-5.991-4.724-5.991A3.887,3.887,0,0,0,14,11.38V9.537H10.2Z" transform="translate(0.517 0.487)" fill="#fff"/>
  </g>
</svg>
