<svg xmlns="http://www.w3.org/2000/svg" width="51.712" height="42.25" viewBox="0 0 51.712 42.25">
  <g id="Group_651" data-name="Group 651" transform="translate(-1464.375 -1074.375)">
    <path id="Path_1624" data-name="Path 1624" d="M1483.154,1124.482h15.769v6.3h3.154v-6.3h15.769v6.3H1521v-6.3a3.158,3.158,0,0,0-3.154-3.154h-15.769v-6.314h-3.154v6.314h-15.769a3.158,3.158,0,0,0-3.154,3.154v6.3h3.154Z" transform="translate(-10.269 -27.395)" fill="#e45424" stroke="#fff" stroke-width="1.25"/>
    <path id="Path_1625" data-name="Path 1625" d="M1585,1175v9.462h12.615V1175Zm9.462,6.308h-6.308v-3.154h6.308Z" transform="translate(-82.154 -68.462)" fill="#e45424" stroke="#fff" stroke-width="1.25"/>
    <path id="Path_1626" data-name="Path 1626" d="M1525,1184.462h12.615V1175H1525Zm3.154-6.308h6.308v3.154h-6.308Z" transform="translate(-41.077 -68.462)" fill="#e45424" stroke="#fff" stroke-width="1.25"/>
    <path id="Path_1627" data-name="Path 1627" d="M1537.615,1075H1525v9.462h12.615Zm-3.154,6.308h-6.308v-3.154h6.308Z" transform="translate(-41.077)" fill="#e45424" stroke="#fff" stroke-width="1.25"/>
    <path id="Path_1628" data-name="Path 1628" d="M1465,1184.462h12.615V1175H1465Zm3.154-6.308h6.308v3.154h-6.308Z" transform="translate(0 -68.462)" fill="#e45424" stroke="#fff" stroke-width="1.25"/>
  </g>
</svg>
