<svg xmlns="http://www.w3.org/2000/svg" width="41.402" height="41.404" viewBox="0 0 41.402 41.404">
  <g id="Group_686" data-name="Group 686" transform="translate(-250.852 -353.332)">
    <path id="Path_1675" data-name="Path 1675" d="M290.86,386.6l-7.048-7.048a17.627,17.627,0,1,0-6.741,6.743l7.047,7.048a4.767,4.767,0,1,0,6.742-6.742Zm-37.827-15.659a15.428,15.428,0,1,1,15.429,15.43A15.446,15.446,0,0,1,253.033,370.939Zm36.286,20.86a2.65,2.65,0,0,1-3.659,0l-6.718-6.718a17.777,17.777,0,0,0,3.658-3.659l6.718,6.719A2.59,2.59,0,0,1,289.319,391.8Z" fill="#e45424"/>
    <path id="Path_1676" data-name="Path 1676" d="M275.653,372.963a1.365,1.365,0,0,1-.407-.218.64.64,0,0,1,.051-.124c.025-.023.049-.047.074-.072a7.14,7.14,0,0,0,1.245-6.728,4.579,4.579,0,0,0-8.078,0,7.139,7.139,0,0,0,1.241,6.723c.024.025.049.049.076.075a.633.633,0,0,1,.053.124,1.417,1.417,0,0,1-.436.228c-4.651.937-7.109,4-7.109,8.857a1.09,1.09,0,0,0,.467.895c.285.2,2.984,1.938,9.983,1.938,7.056,0,9.377-1.8,9.619-2a1.093,1.093,0,0,0,.385-.832C282.818,376.947,280.341,373.883,275.653,372.963Zm-2.839,9.518c-4.736,0-7.272-.864-8.253-1.3.195-3.429,1.978-5.424,5.434-6.09a1.051,1.051,0,0,0,.249-.08,2.659,2.659,0,0,0,1.739-1.556,2.374,2.374,0,0,0-.358-2.122,1.128,1.128,0,0,0-.186-.219l-.1-.088a5.049,5.049,0,0,1-.8-4.357c.2-.467.621-1.088,2.03-1.088s1.833.62,2.029,1.087a5.047,5.047,0,0,1-.8,4.358l-.088.078a1.1,1.1,0,0,0-.2.231,2.378,2.378,0,0,0-.355,2.12A2.709,2.709,0,0,0,275,375.046a1,1,0,0,0,.156.042c3.487.661,5.279,2.67,5.462,6.135C279.762,381.646,277.474,382.481,272.814,382.481Z" transform="translate(-4.13 -3.612)" fill="#e45424"/>
  </g>
</svg>
