<svg xmlns="http://www.w3.org/2000/svg" width="49.244" height="33.452" viewBox="0 0 49.244 33.452">
  <path id="Path_1677" data-name="Path 1677" d="M84.071,368.6l-3.734-4.644a4.061,4.061,0,0,0-3.148-1.473,3.93,3.93,0,0,0-2.144.623l-3,1.946a3.347,3.347,0,0,1-3.086,0l-2.029-1.319a5.638,5.638,0,0,0-3.043-.824,5.429,5.429,0,0,0-2.556.588l-.594.318-2.162-.715a7.514,7.514,0,0,0-5.6.647l-.784.479a4.177,4.177,0,0,1-3.426.166l-2.227-1.082A4.528,4.528,0,0,0,41.2,364.5l-3.734,4.645a3.823,3.823,0,0,0,.495,5.269l2.528,2.157-.944.945a3.727,3.727,0,0,0,0,5.265l.083.082a3.682,3.682,0,0,0,1.693.964,3.726,3.726,0,0,0,.931,3.7l.084.084a3.681,3.681,0,0,0,3.078,1.057,3.708,3.708,0,0,0,1.049,2.115l.082.081a3.694,3.694,0,0,0,2.632,1.088,3.742,3.742,0,0,0,1.213-.2,3.7,3.7,0,0,0,.952,1.638l.084.084a3.73,3.73,0,0,0,5.264,0l.664-.664,1.507,1.506a3.81,3.81,0,0,0,2.671,1.117h0a3.479,3.479,0,0,0,2.482-1.021,4.033,4.033,0,0,0,.831-1.222,3.809,3.809,0,0,0,1.857.492,3.491,3.491,0,0,0,2.439-.967,3.386,3.386,0,0,0,.984-1.848,3.927,3.927,0,0,0,.656.058,3.876,3.876,0,0,0,2.635-1.026,3.6,3.6,0,0,0,1.172-2.587c0-.04,0-.079,0-.119a3.431,3.431,0,0,0,2.241-.938,3.354,3.354,0,0,0,1.024-2.42,3.759,3.759,0,0,0-1.072-2.615,3.658,3.658,0,0,0,1.239-.876L83.887,374A4.212,4.212,0,0,0,84.071,368.6Zm-42.91,12.567a1.441,1.441,0,0,1,0-2.035l2.71-2.711a1.446,1.446,0,0,1,2.034,0l.085.084a1.439,1.439,0,0,1,.026,2l-2.765,2.766a1.479,1.479,0,0,1-2.007-.024ZM43.953,386l-.084-.084a1.439,1.439,0,0,1,0-2.034l.962-.963c.02-.02.042-.036.062-.056l2.71-2.71c.02-.02.036-.04.055-.06l.07-.071a1.446,1.446,0,0,1,2.033,0l.085.085a1.445,1.445,0,0,1,0,2.035l-.581.581-.021.018-2.781,2.781-.017.019-.46.46A1.482,1.482,0,0,1,43.953,386Zm4.208,3.252-.082-.082a1.44,1.44,0,0,1-.008-2.025l2.8-2.8a1.443,1.443,0,0,1,2.023.008l.085.085a1.44,1.44,0,0,1,0,2.034L50.2,389.258A1.479,1.479,0,0,1,48.162,389.256Zm4.881,2.606-.083-.083a1.44,1.44,0,0,1,0-2.034L54.6,388.1a1.447,1.447,0,0,1,2.036,0l.082.082a1.445,1.445,0,0,1,0,2.034l-1.643,1.643A1.48,1.48,0,0,1,53.043,391.861Zm22.206-7.249a1.414,1.414,0,0,1-1.932-.153L68.8,379.918a1.141,1.141,0,1,0-1.618,1.61l4.514,4.538.013.012.209.211a1.335,1.335,0,0,1,.4.976,1.364,1.364,0,0,1-.471.989,1.573,1.573,0,0,1-2.135-.045l-3.579-3.591-.5-.506a1.117,1.117,0,0,0-.732-.329c-.024,0-.049-.007-.074-.007s-.06.006-.09.008-.086,0-.128.012a1.141,1.141,0,0,0-.371.146c-.013.008-.027.012-.04.021s-.018.016-.028.023a1.214,1.214,0,0,0-.151.122,1.161,1.161,0,0,0-.173.229,1.153,1.153,0,0,0,.17,1.385l3.461,3.475a1.486,1.486,0,0,1,.443,1.048,1.156,1.156,0,0,1-.345.828,1.418,1.418,0,0,1-1.949-.139l-2.6-2.631a1.205,1.205,0,0,0-.135-.111c-.014-.01-.026-.024-.041-.034a1.2,1.2,0,0,0-.124-.067c-.025-.012-.049-.028-.074-.039s-.069-.021-.1-.032a1.025,1.025,0,0,0-.109-.033c-.026-.005-.052,0-.078-.008a1.239,1.239,0,0,0-.141-.014c-.02,0-.039,0-.059.005a1.105,1.105,0,0,0-.16.014c-.016,0-.031.01-.047.014a1.055,1.055,0,0,0-.164.047c-.015.007-.03.016-.044.023a1.126,1.126,0,0,0-.155.081c-.027.017-.05.04-.075.06a1.223,1.223,0,0,0-.1.082v0l0,0a1.066,1.066,0,0,0-.088.106c-.018.023-.041.045-.058.069a1.16,1.16,0,0,0-.071.13c-.011.023-.026.044-.036.067a1.1,1.1,0,0,0-.042.137c-.007.025-.017.049-.023.074-.008.042-.009.085-.014.128s-.008.06-.009.09.006.075.009.112,0,.071.009.106.02.069.03.1.018.073.031.108a1.127,1.127,0,0,0,.057.11.851.851,0,0,0,.046.089,1.1,1.1,0,0,0,.1.121c.016.019.028.04.046.059h0v0l.028.029,1.33,1.356c.271.276.179.98-.348,1.51a1.21,1.21,0,0,1-.866.347h0a1.509,1.509,0,0,1-1.057-.448l-1.588-1.588a3.722,3.722,0,0,0-.557-4.547l-.082-.082a3.693,3.693,0,0,0-2.573-1.085,3.705,3.705,0,0,0-1.085-2.574l-.085-.085a3.689,3.689,0,0,0-2.01-1.032,3.812,3.812,0,0,0,.049-.584,3.7,3.7,0,0,0-1.086-2.631l-.084-.085a3.7,3.7,0,0,0-2.632-1.087c-.021,0-.042,0-.063,0a3.7,3.7,0,0,0-1.079-2.435l-.084-.084a3.729,3.729,0,0,0-5.263,0l-.147.146-2.666-2.274a1.544,1.544,0,0,1-.2-2.1l3.734-4.645a2.258,2.258,0,0,1,2.549-.572l2.227,1.082a6.433,6.433,0,0,0,5.616-.272l.784-.48a5.2,5.2,0,0,1,3.7-.426l.1.035-.463.248A4.02,4.02,0,0,0,55.74,370.6l.047.111a3.81,3.81,0,0,0,3.505,2.284,3.731,3.731,0,0,0,1.387-.265l1.3-.518a10.191,10.191,0,0,1,1.822-.563l1.879,1.844,4.464,4.383,4.975,4.907a1.474,1.474,0,0,1,.454,1.044A1.082,1.082,0,0,1,75.249,384.612Zm6.961-12.164L76.346,378.8a1.352,1.352,0,0,1-1.953.047l-2.717-2.667-.236-.233-.006,0L65.1,369.716a1.44,1.44,0,0,0-1.049-.385,10.122,10.122,0,0,0-2.913.757l-1.3.518a1.571,1.571,0,0,1-1.951-.8l-.047-.111a1.717,1.717,0,0,1,.74-2.128l3.83-2.055a3.249,3.249,0,0,1,1.477-.317,3.444,3.444,0,0,1,1.8.455l2.029,1.319a5.464,5.464,0,0,0,5.571,0l3-1.946a1.648,1.648,0,0,1,.9-.255,1.76,1.76,0,0,1,1.369.62l3.734,4.644A1.963,1.963,0,0,1,82.21,372.448Z" transform="translate(-36.16 -362.234)" fill="#e45424" stroke="#fff" stroke-width="0.5"/>
</svg>
