<svg xmlns="http://www.w3.org/2000/svg" viewBox="0 0 24.262 24.033">
  <g id="Group_641" data-name="Group 641" transform="translate(-940.619 -558)">
    <g id="Group_11" data-name="Group 11" transform="translate(940.619 558)">
      <path id="Path_42" data-name="Path 42" d="M20.348,7.9a10.336,10.336,0,1,1-2.876-5.025A10.3,10.3,0,0,1,20.348,7.9ZM2.086,12.3a8.436,8.436,0,0,0,8.386,6.48,8.355,8.355,0,0,0,5.925-2.6A8.455,8.455,0,1,0,4.235,4.432,8.379,8.379,0,0,0,2.086,12.3Z" transform="translate(0.042 0.006)"/>
    </g>
    <g id="Group_12" data-name="Group 12" transform="translate(956.834 573.959)">
      <path id="Path_43" data-name="Path 43" d="M54.772,52.963a.933.933,0,0,1-1.559.9l-6.2-6.237a.931.931,0,0,1,1.317-1.317l6.2,6.237A.643.643,0,0,1,54.772,52.963Z" transform="translate(-46.75 -46.05)"/>
    </g>
  </g>
</svg>
