<svg xmlns="http://www.w3.org/2000/svg" width="31.196" height="25.592" viewBox="0 0 31.196 25.592">
  <path id="Path_1595" data-name="Path 1595" d="M35,7.976a8.5,8.5,0,0,1-3.736.934,5.923,5.923,0,0,0,2.8-3.549,10.905,10.905,0,0,1-4.11,1.494A6.071,6.071,0,0,0,25.282,4.8a6.3,6.3,0,0,0-6.351,6.351,4.113,4.113,0,0,0,.187,1.494A17.594,17.594,0,0,1,5.855,6.108,6.218,6.218,0,0,0,7.91,14.7a7.832,7.832,0,0,1-2.989-.747,6.428,6.428,0,0,0,5.23,6.351,5.172,5.172,0,0,1-1.681.187A2.369,2.369,0,0,1,7.349,20.3a6.22,6.22,0,0,0,5.978,4.483,13.5,13.5,0,0,1-8.033,2.8H3.8a17.571,17.571,0,0,0,9.9,2.8c11.769,0,18.307-9.714,18.307-18.307v-.747A27.169,27.169,0,0,0,35,7.976Z" transform="translate(-3.8 -4.8)" fill="#3c3c3c"/>
</svg>
