<svg xmlns="http://www.w3.org/2000/svg" width="43.093" height="43.093" viewBox="0 0 43.093 43.093">
  <g id="noun_Accessibility_975768" transform="translate(-9.8 -9.8)">
    <g id="Group_682" data-name="Group 682" transform="translate(9.8 9.8)">
      <path id="Path_1669" data-name="Path 1669" d="M45.422,56.249a1.427,1.427,0,0,0,.643-.161,1.546,1.546,0,0,0,.75-2.09,84.374,84.374,0,0,1-3.484-9.219,33.626,33.626,0,0,1-.375-4.234.825.825,0,0,1,.536-.8l6.593-1.983a1.561,1.561,0,1,0-.858-3s-6.11,1.983-8.308,1.983c-2.144,0-8.2-1.93-8.2-1.93a1.625,1.625,0,0,0-1.983.965,1.55,1.55,0,0,0,1.072,1.983L38.4,39.741a.762.762,0,0,1,.536.8,33.626,33.626,0,0,1-.375,4.234A84.374,84.374,0,0,1,35.077,54a1.591,1.591,0,0,0,.75,2.09,1.427,1.427,0,0,0,.643.161,1.453,1.453,0,0,0,1.394-.911l3.162-6.432,3,6.485A1.545,1.545,0,0,0,45.422,56.249Z" transform="translate(-19.48 -21.356)" fill="#e45424"/>
      <circle id="Ellipse_28" data-name="Ellipse 28" cx="3.002" cy="3.002" r="3.002" transform="translate(18.545 7.825)" fill="#e45424"/>
      <path id="Path_1670" data-name="Path 1670" d="M52.893,31.347A21.547,21.547,0,1,0,31.347,52.893,21.548,21.548,0,0,0,52.893,31.347Zm-41.325,0A19.778,19.778,0,1,1,31.347,51.125,19.8,19.8,0,0,1,11.569,31.347Z" transform="translate(-9.8 -9.8)" fill="#e45424"/>
    </g>
  </g>
</svg>
