<svg xmlns="http://www.w3.org/2000/svg" width="38.491" height="41.969" viewBox="0 0 38.491 41.969">
  <g id="Group_669" data-name="Group 669" transform="translate(-358.35 -250.735)">
    <path id="Path_1646" data-name="Path 1646" d="M393.481,255.2h-2.869v-.64a3.573,3.573,0,0,0-7.147,0v.64H371.3v-.64a3.573,3.573,0,0,0-7.147,0v.64H361.71a3.114,3.114,0,0,0-3.11,3.11v31.036a3.113,3.113,0,0,0,3.11,3.11h31.771a3.113,3.113,0,0,0,3.11-3.11V258.308A3.113,3.113,0,0,0,393.481,255.2Zm-7.511-.64a1.069,1.069,0,0,1,2.137,0V259.2a1.069,1.069,0,1,1-2.137,0Zm-19.313,0a1.069,1.069,0,0,1,2.137,0V259.2a1.069,1.069,0,1,1-2.137,0Zm-4.947,3.284h2.442V259.2a3.573,3.573,0,1,0,7.147,0v-1.357h12.166V259.2a3.573,3.573,0,1,0,7.147,0v-1.357h2.869a.472.472,0,0,1,.465.466v7.577h-32.7v-7.577A.472.472,0,0,1,361.71,257.842Zm31.771,31.968H361.71a.472.472,0,0,1-.466-.466V268.389h32.7v20.955A.472.472,0,0,1,393.481,289.81Z" transform="translate(0)" fill="#e45424" stroke="#fff" stroke-width="0.5"/>
    <rect id="Rectangle_387" data-name="Rectangle 387" width="3.271" height="3.271" transform="translate(366.304 273.602)" fill="#e45424" stroke="#fff" stroke-width="0.5"/>
    <rect id="Rectangle_388" data-name="Rectangle 388" width="3.271" height="3.271" transform="translate(372.741 273.602)" fill="#e45424" stroke="#fff" stroke-width="0.5"/>
    <rect id="Rectangle_389" data-name="Rectangle 389" width="3.271" height="3.271" transform="translate(379.179 273.602)" fill="#e45424" stroke="#fff" stroke-width="0.5"/>
    <rect id="Rectangle_390" data-name="Rectangle 390" width="3.271" height="3.271" transform="translate(385.617 273.602)" fill="#e45424" stroke="#fff" stroke-width="0.5"/>
    <rect id="Rectangle_391" data-name="Rectangle 391" width="3.271" height="3.271" transform="translate(366.304 280.694)" fill="#e45424" stroke="#fff" stroke-width="0.5"/>
    <rect id="Rectangle_392" data-name="Rectangle 392" width="3.271" height="3.271" transform="translate(372.741 280.694)" fill="#e45424" stroke="#fff" stroke-width="0.5"/>
    <rect id="Rectangle_393" data-name="Rectangle 393" width="3.271" height="3.271" transform="translate(379.179 280.694)" fill="#e45424" stroke="#fff" stroke-width="0.5"/>
    <rect id="Rectangle_394" data-name="Rectangle 394" width="3.271" height="3.271" transform="translate(385.617 280.694)" fill="#e45424" stroke="#fff" stroke-width="0.5"/>
  </g>
</svg>
