<svg xmlns="http://www.w3.org/2000/svg" width="41.74" height="36.771" viewBox="0 0 41.74 36.771">
  <g id="noun_Speech_Bubble_178757" data-name="noun_Speech Bubble_178757" transform="translate(-8 -13)">
    <path id="Path_1707" data-name="Path 1707" d="M48.746,13H15.752a1,1,0,0,0-.994.994v5.764H8.994A1,1,0,0,0,8,20.752V41.82a1,1,0,0,0,.994.994h3.578v5.963a.982.982,0,0,0,.6.894.936.936,0,0,0,.4.1.981.981,0,0,0,.7-.3l6.658-6.658h16.3a1,1,0,0,0,.994-.994V37.447l5.267,5.267a.981.981,0,0,0,.7.3.6.6,0,0,0,.4-.1.982.982,0,0,0,.6-.894V36.056h3.578a1,1,0,0,0,.994-.994V13.994A1,1,0,0,0,48.746,13ZM36.224,40.826h-15.7a.981.981,0,0,0-.7.3l-5.267,5.217V41.82a1,1,0,0,0-.994-.994H9.988V21.745H36.224Zm11.528-6.758H44.174a1,1,0,0,0-.994.994v4.522l-4.969-4.969V20.752a1,1,0,0,0-.994-.994H16.745v-4.77H47.752Z" fill="#fff"/>
    <path id="Path_1708" data-name="Path 1708" d="M18.994,39a.994.994,0,1,0,0,1.988H37.081a.994.994,0,0,0,0-1.988Z" transform="translate(-5.031 -13.081)" fill="#fff"/>
    <path id="Path_1709" data-name="Path 1709" d="M37.081,47.8H18.994a.994.994,0,0,0,0,1.988H37.081a.994.994,0,0,0,0-1.988Z" transform="translate(-5.031 -17.508)" fill="#fff"/>
    <path id="Path_1710" data-name="Path 1710" d="M29.131,56.6H18.994a.994.994,0,1,0,0,1.988H29.131a.994.994,0,1,0,0-1.988Z" transform="translate(-5.031 -21.935)" fill="#fff"/>
  </g>
</svg>
