<svg xmlns="http://www.w3.org/2000/svg" width="47.485" height="41" viewBox="0 0 47.485 41">
  <g id="noun_Location_178822" transform="translate(-6.9 -12.7)">
    <path id="Path_1694" data-name="Path 1694" d="M28.4,28.571c0,8.574,9.178,17.752,11.871,20.28,2.693-2.528,11.871-11.816,11.871-20.28a11.871,11.871,0,1,0-23.743,0Zm18.576-.055a6.705,6.705,0,1,1-6.705-6.76A6.7,6.7,0,0,1,46.976,28.516Z" transform="translate(-9.684 -1.802)" fill="none"/>
    <path id="Path_1695" data-name="Path 1695" d="M41.8,34.507A4.507,4.507,0,1,0,46.307,30,4.527,4.527,0,0,0,41.8,34.507Z" transform="translate(-15.719 -7.792)" fill="none"/>
    <path id="Path_1696" data-name="Path 1696" d="M54.275,77.153c0-.055,0-.055-.055-.11v-.055L50.868,68.36h0c0-.055-.055-.055-.055-.11a2239.7,2239.7,0,0,1-.11-.11c0-.055-.055-.055-.055-.11l-.055-.055c-.055-.055-.055-.055-.11-.055l-.055-.055c-.055,0-.055-.055-.11-.055s-.055,0-.11-.055c-.055,0-.055-.055-.11-.055H41.69a1.1,1.1,0,1,0,0,2.2h7.42l2.473,6.43H9.538l2.473-6.43h7.42a1.1,1.1,0,1,0,0-2.2H11.022c-.055,0-.055,0-.11.055-.055,0-.055,0-.11.055l-.055.055c-.055,0-.055.055-.11.055l-.055.055c-.055,0-.055.055-.11.055l-.055.055c0,.055-.055.055-.055.11a.054.054,0,0,1-.055.055c0,.055-.055.055-.055.11h0l-3.3,8.629v.055c0,.055,0,.055-.055.11v.165h0v.22c0,.055,0,.055.055.11v.165c0,.055.055.055.055.11s.055.055.055.11.055.055.055.11l.055.055a.192.192,0,0,0,.11.055c.055,0,.055.055.11.055l.055.055c.055,0,.055.055.11.055h0c.055,0,.055,0,.11.055H53.561c.055,0,.055,0,.11-.055h0c.055,0,.055-.055.11-.055a.054.054,0,0,0,.055-.055c.055,0,.055-.055.11-.055s.055-.055.11-.055l.055-.055c0-.055.055-.055.055-.11s.055-.055.055-.11.055-.055.055-.11,0-.055.055-.11c0-.055,0-.055.055-.11v-.22h0v-.055C54.33,77.263,54.275,77.208,54.275,77.153Z" transform="translate(0 -24.772)" fill="#e45424"/>
    <path id="Path_1697" data-name="Path 1697" d="M24.4,26.77c0,4.672,2.253,9.893,6.705,15.554a55.218,55.218,0,0,0,6.65,7.035,1.066,1.066,0,0,0,1.429,0,58.116,58.116,0,0,0,6.65-7.09c4.452-5.661,6.705-10.882,6.705-15.5a14.07,14.07,0,1,0-28.139,0Zm25.941,0c0,8.464-9.178,17.752-11.871,20.28C35.777,44.577,26.6,35.343,26.6,26.77a11.871,11.871,0,1,1,23.743,0Z" transform="translate(-7.882)" fill="#e45424"/>
    <path id="Path_1698" data-name="Path 1698" d="M37.8,32.66a6.705,6.705,0,1,0,6.705-6.76A6.7,6.7,0,0,0,37.8,32.66Zm11.212,0a4.507,4.507,0,1,1-4.507-4.507A4.527,4.527,0,0,1,49.012,32.66Z" transform="translate(-13.917 -5.945)" fill="#e45424"/>
  </g>
</svg>
